<?xml version="1.0" standalone="no"?><!DOCTYPE svg PUBLIC "-//W3C//DTD SVG 1.1//EN" "http://www.w3.org/Graphics/SVG/1.1/DTD/svg11.dtd"><svg t="1600676222922" class="icon" viewBox="0 0 1024 1024" version="1.1" xmlns="http://www.w3.org/2000/svg" p-id="12254" xmlns:xlink="http://www.w3.org/1999/xlink" width="48" height="48"><defs><style type="text/css"></style></defs><path d="M384 576H192c-38.4 0-64 25.6-64 64v192c0 38.4 25.6 64 64 64H384c38.4 0 64-25.6 64-64V640c0-38.4-25.6-64-64-64z m0 256H192V640H384v192zM864 128H160C140.8 128 128 140.8 128 160v320c0 19.2 12.8 32 32 32s32-12.8 32-32V192h640v640h-288c-19.2 0-32 12.8-32 32s12.8 32 32 32h320c19.2 0 32-12.8 32-32V160c0-19.2-12.8-32-32-32zM640 544c0-19.2-12.8-32-32-32h-51.2l134.4-134.4c12.8-12.8 12.8-32 0-44.8-12.8-12.8-32-12.8-44.8 0L512 467.2v-51.2c0-19.2-12.8-32-32-32s-32 12.8-32 32v128c0 19.2 12.8 32 32 32h128c19.2 0 32-12.8 32-32z" p-id="12255" fill="#ffffff"></path></svg>