<?xml version="1.0" standalone="no"?><!DOCTYPE svg PUBLIC "-//W3C//DTD SVG 1.1//EN" "http://www.w3.org/Graphics/SVG/1.1/DTD/svg11.dtd"><svg t="1600676418360" class="icon" viewBox="0 0 1024 1024" version="1.1" xmlns="http://www.w3.org/2000/svg" p-id="12670" xmlns:xlink="http://www.w3.org/1999/xlink" width="48" height="48"><defs><style type="text/css"></style></defs><path d="M821.973333 725.333333a32 32 0 0 1 4.352 63.701334l-4.352 0.298666H202.666667a32 32 0 0 1-4.352-63.701333L202.666667 725.333333h619.306666z m0-256a32 32 0 0 1 4.352 63.701334l-4.352 0.298666H202.666667a32 32 0 0 1-4.352-63.701333L202.666667 469.333333h619.306666z m0-256a32 32 0 0 1 4.352 63.701334l-4.352 0.298666H202.666667a32 32 0 0 1-4.352-63.701333L202.666667 213.333333h619.306666z" p-id="12671" fill="#ffffff"></path></svg>